
<svg version="1.1" id="Layer_1" xmlns="http://www.w3.org/2000/svg" xmlns:xlink="http://www.w3.org/1999/xlink" x="0px" y="0px"
viewBox="0 0 21 20" style="enable-background:new 0 0 21 20;" xml:space="preserve">
	<path class="st0" d="M5.8,15.3c-1.3,0-2.4-1-2.5-2.3L2.4,2.2L0.9,1.9C0.5,1.8,0.2,1.5,0.3,1s0.5-0.7,0.9-0.6l2.1,0.4
		c0.3,0.1,0.6,0.3,0.6,0.7l0.2,2.8c14.3,0,14.3,0,14.4,0c0.6,0.1,1,0.4,1.4,0.8c0.3,0.4,0.5,1,0.4,1.5l-0.9,6.5
		c-0.2,1.2-1.3,2.2-2.5,2.2c0,0,0,0,0,0H5.8C5.8,15.3,5.8,15.3,5.8,15.3z M4.2,5.7l0.6,7.1c0,0.5,0.5,0.9,1,0.9c0,0,0,0,0,0h10.9
		c0,0,0,0,0,0c0.5,0,1-0.4,1-0.9l0.9-6.5c0-0.1,0-0.3-0.1-0.4c-0.1-0.1-0.2-0.2-0.4-0.2C18,5.7,9.4,5.7,4.2,5.7z"/>
	<path class="st0" d="M15.1,9.4h-2.8c-0.4,0-0.8-0.3-0.8-0.8s0.3-0.8,0.8-0.8h2.8c0.4,0,0.8,0.3,0.8,0.8S15.6,9.4,15.1,9.4z"/>
	<path class="st0" d="M5.9,18.5c0,0.3-0.2,0.5-0.5,0.5"/>
	<path class="st0" d="M5.4,19.8c-0.7,0-1.3-0.6-1.3-1.3c0-0.7,0.6-1.3,1.3-1.3s1.3,0.6,1.3,1.3C6.7,19.2,6.1,19.8,5.4,19.8z"/>
	<path class="st0" d="M16.7,17.9c0.3,0,0.5,0.2,0.5,0.5c0,0.3-0.2,0.5-0.5,0.5c-0.3,0-0.5-0.2-0.5-0.5
		C16.1,18.2,16.4,17.9,16.7,17.9z"/>
	<path class="st0" d="M16.7,19.8c-0.7,0-1.3-0.6-1.3-1.3c0-0.7,0.6-1.3,1.3-1.3s1.3,0.6,1.3,1.3C18,19.2,17.4,19.8,16.7,19.8z"/>
</svg>
