<svg width="21" height="21" viewBox="0 0 21 21" xmlns="http://www.w3.org/2000/svg">
<path fill-rule="evenodd" clip-rule="evenodd" d="M9.98856 1.75C5.43025 1.75 1.75 5.40005 1.75 9.88424C1.75 14.3684 5.43025 18.0185 9.98856 18.0185C14.5469 18.0185 18.2271 14.3684 18.2271 9.88424C18.2271 5.40005 14.5469 1.75 9.98856 1.75ZM0.25 9.88424C0.25 4.55517 4.61838 0.25 9.98856 0.25C15.3587 0.25 19.7271 4.55517 19.7271 9.88424C19.7271 15.2133 15.3587 19.5185 9.98856 19.5185C4.61838 19.5185 0.25 15.2133 0.25 9.88424Z"/>
<path fill-rule="evenodd" clip-rule="evenodd" d="M15.7062 15.9984C15.997 15.7034 16.4719 15.7 16.7668 15.9908L20.2909 19.4649C20.5858 19.7557 20.5892 20.2305 20.2984 20.5255C20.0076 20.8205 19.5328 20.8239 19.2378 20.5331L15.7138 17.059C15.4188 16.7682 15.4154 16.2933 15.7062 15.9984Z"/>
</svg>
